<?xml version="1.0" standalone="no"?>
<!DOCTYPE svg PUBLIC "-//W3C//DTD SVG 20010904//EN"
 "http://www.w3.org/TR/2001/REC-SVG-20010904/DTD/svg10.dtd">
<svg version="1.0" xmlns="http://www.w3.org/2000/svg"
 width="600.000000pt" height="400.000000pt" viewBox="0 0 600.000000 400.000000"
 preserveAspectRatio="xMidYMid meet">
<g transform="translate(0.000000,400.000000) scale(0.100000,-0.100000)"
fill="#000000" stroke="none">
<path d="M1814 3011 c-17 -17 6 -28 77 -38 93 -12 124 -34 139 -99 19 -79 11
-1193 -8 -1249 -21 -63 -76 -95 -159 -95 -44 0 -53 -3 -53 -17 0 -27 663 -27
668 0 3 14 -5 17 -52 17 -93 0 -148 33 -166 101 -18 64 -14 1221 4 1263 24 57
55 70 177 74 320 11 511 -153 477 -411 -28 -212 -228 -340 -504 -324 l-104 7
0 -29 c0 -27 4 -30 43 -36 187 -32 278 -120 487 -470 245 -413 357 -514 568
-515 l52 0 -63 63 c-68 66 -176 225 -326 479 -163 274 -282 385 -464 432 l-52
14 50 6 c311 38 474 123 548 286 35 76 31 219 -8 289 -67 121 -216 205 -430
242 -66 11 -890 20 -901 10z"/>
<path d="M3217 2505 c-4 -9 -7 -19 -7 -21 0 -2 38 -4 84 -4 316 0 524 -157
602 -455 27 -102 25 -341 -4 -446 -86 -317 -360 -502 -668 -450 -110 19 -158
57 -171 137 -4 25 -23 58 -52 94 -25 31 -68 92 -96 138 l-50 82 -5 -172 c-7
-243 -34 -288 -172 -288 -49 0 -58 -3 -58 -17 0 -27 814 -26 934 1 321 71 542
271 600 544 89 413 -107 733 -513 839 -129 34 -414 46 -424 18z"/>
<path d="M2975 2229 c-40 -22 -103 -46 -147 -56 l-78 -18 44 -22 c61 -31 150
-115 207 -197 l49 -69 0 201 c0 111 -1 202 -2 201 -2 0 -34 -18 -73 -40z"/>
</g>
</svg>
